<svg xmlns="http://www.w3.org/2000/svg" viewBox="0 0 1024 1024" role="img" aria-labelledby="title desc">
  <title id="title">AirCalc Pro Logo</title>
  <desc id="desc">AirCalc Pro HVAC and calculator logo in blue green gradient.</desc>
  <defs>
    <linearGradient id="g1" x1="0%" y1="100%" x2="100%" y2="0%">
      <stop offset="0%" stop-color="#1558d6"/>
      <stop offset="45%" stop-color="#18b8d7"/>
      <stop offset="100%" stop-color="#9be23d"/>
    </linearGradient>
    <linearGradient id="g2" x1="0%" y1="0%" x2="100%" y2="100%">
      <stop offset="0%" stop-color="#2a95e8"/>
      <stop offset="100%" stop-color="#6ecf48"/>
    </linearGradient>
    <style>
      .s{fill:none;stroke:url(#g1);stroke-width:14;stroke-linecap:round;stroke-linejoin:round}
      .f{fill:none;stroke:url(#g2);stroke-width:12;stroke-linecap:round;stroke-linejoin:round}
      .t1{font:700 74px 'Segoe UI', Arial, sans-serif;fill:url(#g1)}
      .t2{font:500 42px 'Segoe UI', Arial, sans-serif;fill:#6fbe37;letter-spacing:10px}
    </style>
  </defs>

  <rect width="1024" height="1024" rx="64" fill="#fff"/>

  <path class="s" d="M374 325c42-83 113-126 214-126h145c81 0 147 66 147 147v98"/>
  <path class="s" d="M610 555H332c-69 0-124 56-124 124v68c0 33 13 64 36 87 23 23 54 36 87 36h282"/>
  <path class="s" d="M178 500v96"/>
  <circle cx="298" cy="625" r="10" fill="url(#g1)"/>
  <circle cx="354" cy="514" r="7" fill="url(#g2)"/>
  <circle cx="330" cy="514" r="7" fill="url(#g2)"/>

  <path class="f" d="M216 348c22-15 47-17 74-5 21 10 42 10 64 0"/>
  <path class="f" d="M216 404c22-15 47-17 74-5 21 10 42 10 64 0"/>
  <path class="f" d="M222 458c22-15 47-17 74-5 21 10 42 10 64 0"/>

  <circle class="s" cx="556" cy="372" r="32"/>
  <path class="s" d="M556 340c-26-22-82-67-106-14-20 43 7 90 59 77"/>
  <path class="s" d="M588 372c27-22 84-60 110-5 21 45-8 99-59 78"/>
  <path class="s" d="M556 404c-19 30-51 65-12 90 31 20 72-11 83-62"/>
  <path class="s" d="M525 372c-18-30-39-74-72-40-27 27-12 80 41 94"/>
  <path class="f" d="M657 279c44 23 73 68 81 124"/>
  <path class="f" d="M728 433v11"/>
  <path class="f" d="M726 470c-3 17-8 30-14 42"/>

  <g transform="translate(628 488)">
    <rect class="s" x="0" y="0" width="257" height="332" rx="36"/>
    <rect class="f" x="33" y="34" width="190" height="70" rx="18"/>
    <line class="s" x1="102" y1="70" x2="121" y2="70"/>
    <line class="s" x1="147" y1="70" x2="166" y2="70"/>
    <line class="s" x1="192" y1="70" x2="211" y2="70"/>
    <rect class="s" x="37" y="136" width="42" height="42" rx="8"/>
    <rect class="s" x="108" y="136" width="42" height="42" rx="8"/>
    <line class="f" x1="193" y1="137" x2="193" y2="177"/>
    <line class="f" x1="173" y1="157" x2="213" y2="157"/>
    <rect class="s" x="37" y="202" width="42" height="42" rx="8"/>
    <rect class="s" x="108" y="202" width="42" height="42" rx="8"/>
    <line class="s" x1="174" y1="223" x2="214" y2="223"/>
    <rect class="s" x="37" y="268" width="42" height="42" rx="8"/>
    <line class="s" x1="113" y1="273" x2="145" y2="305"/>
    <line class="s" x1="145" y1="273" x2="113" y2="305"/>
    <line class="s" x1="174" y1="278" x2="214" y2="278"/>
    <line class="s" x1="174" y1="300" x2="214" y2="300"/>
  </g>

  <text class="t1" x="198" y="711">Air<tspan fill="#7dcc3f">Calc</tspan></text>
  <line class="s" x1="258" y1="757" x2="315" y2="757"/>
  <text class="t2" x="347" y="770">PRO</text>
</svg>
